# xmcd
#
# Track frame offsets: 
#        150
#        35190
#        55085
#        75773
#        110137
#        128645
#        151599
#
# Disc length: 2711 seconds
#
# Revision: 2
# Processed by: cddbd v1.5.2PL0 Copyright (c) Steve Scherf et al.
# Submitted via: ExactAudioCopy v0.99pb5
#
DISCID=4b0a9507
DTITLE=Canned Heat and John Lee Hooker - Hooker 'N' Heat - Disc Two
DYEAR=1970
DGENRE=Blues
TTITLE0=The World Today
TTITLE1=I Got My Eyes On You
TTITLE2=Whiskey And Wimmen'
TTITLE3=Just You And Me
TTITLE4=Let's Make It
TTITLE5=Peavine
TTITLE6=Boogie Chillen No. 2
EXTD=
EXTT0=
EXTT1=
EXTT2=
EXTT3=
EXTT4=
EXTT5=
EXTT6=
PLAYORDER=
